<mxfile host="65bd71144e">
    <diagram id="6a731a19-8d31-9384-78a2-239565b7b9f0" name="Page-1">
        <mxGraphModel dx="1333" dy="4123" grid="1" gridSize="10" guides="1" tooltips="1" connect="1" arrows="1" fold="1" page="1" pageScale="1" pageWidth="1169" pageHeight="827" background="none" math="0" shadow="0">
            <root>
                <mxCell id="0"/>
                <mxCell id="1" parent="0"/>
                <mxCell id="RF8mBAwJzvHUmaenBq2k-1" value="Mindmap" style="swimlane;startSize=20;horizontal=1;containerType=tree;strokeColor=none;fillColor=none;" parent="1" vertex="1">
                    <mxGeometry x="220" y="-2730" width="2020" height="2830" as="geometry"/>
                </mxCell>
                <mxCell id="RF8mBAwJzvHUmaenBq2k-42" value="Legende" style="swimlane;" parent="RF8mBAwJzvHUmaenBq2k-1" vertex="1">
                    <mxGeometry x="50" y="110" width="470" height="1030" as="geometry">
                        <mxRectangle x="20" y="190" width="90" height="30" as="alternateBounds"/>
                    </mxGeometry>
                </mxCell>
                <mxCell id="RF8mBAwJzvHUmaenBq2k-11" value="Ziele" style="rounded=0;whiteSpace=wrap;html=1;fillColor=#ffe6cc;strokeColor=#d79b00;treeFolding=1;treeMoving=1;noLabel=0;fixedWidth=1;" parent="RF8mBAwJzvHUmaenBq2k-42" vertex="1">
                    <mxGeometry x="250" y="60" width="200" height="80" as="geometry"/>
                </mxCell>
                <mxCell id="RF8mBAwJzvHUmaenBq2k-17" value="Perception Team" style="rounded=1;whiteSpace=wrap;html=1;gradientColor=default;fillColor=none;strokeColor=#00ff00;container=0;part=0;treeFolding=1;treeMoving=1;" parent="RF8mBAwJzvHUmaenBq2k-42" vertex="1">
                    <mxGeometry x="250" y="180" width="200" height="80" as="geometry"/>
                </mxCell>
                <mxCell id="RF8mBAwJzvHUmaenBq2k-19" value="Acting Team" style="rounded=1;whiteSpace=wrap;html=1;fillColor=none;strokeColor=#FF0000;treeFolding=1;treeMoving=1;" parent="RF8mBAwJzvHUmaenBq2k-42" vertex="1">
                    <mxGeometry x="250" y="300" width="200" height="80" as="geometry"/>
                </mxCell>
                <mxCell id="RF8mBAwJzvHUmaenBq2k-18" value="Planning Team" style="rounded=1;whiteSpace=wrap;html=1;gradientColor=default;fillColor=none;strokeColor=#0000ff;treeFolding=1;treeMoving=1;" parent="RF8mBAwJzvHUmaenBq2k-42" vertex="1">
                    <mxGeometry x="250" y="420" width="200" height="80" as="geometry"/>
                </mxCell>
                <mxCell id="RF8mBAwJzvHUmaenBq2k-24" value="Übergeordnetes Problem Perception" style="shape=cube;whiteSpace=wrap;html=1;boundedLbl=1;backgroundOutline=1;darkOpacity=0.05;darkOpacity2=0.1;fillColor=#00ff00;treeFolding=1;treeMoving=1;" parent="RF8mBAwJzvHUmaenBq2k-42" vertex="1">
                    <mxGeometry x="10" y="180" width="200" height="80" as="geometry"/>
                </mxCell>
                <mxCell id="RF8mBAwJzvHUmaenBq2k-26" value="Übergeordnetes Problem Acting" style="shape=cube;whiteSpace=wrap;html=1;boundedLbl=1;backgroundOutline=1;darkOpacity=0.05;darkOpacity2=0.1;fillColor=#ff0000;treeFolding=1;treeMoving=1;" parent="RF8mBAwJzvHUmaenBq2k-42" vertex="1">
                    <mxGeometry x="10" y="300" width="200" height="80" as="geometry"/>
                </mxCell>
                <mxCell id="RF8mBAwJzvHUmaenBq2k-25" value="&lt;font color=&quot;#ffffff&quot;&gt;Übergeordnetes Problem Planning&lt;/font&gt;" style="shape=cube;whiteSpace=wrap;html=1;boundedLbl=1;backgroundOutline=1;darkOpacity=0.05;darkOpacity2=0.1;fillColor=#0000ff;treeFolding=1;treeMoving=1;" parent="RF8mBAwJzvHUmaenBq2k-42" vertex="1">
                    <mxGeometry x="10" y="420" width="200" height="80" as="geometry"/>
                </mxCell>
                <mxCell id="RF8mBAwJzvHUmaenBq2k-27" value="Problem Perception" style="rounded=0;whiteSpace=wrap;html=1;fillColor=#00ff00;treeFolding=1;treeMoving=1;" parent="RF8mBAwJzvHUmaenBq2k-42" vertex="1">
                    <mxGeometry x="250" y="540" width="200" height="80" as="geometry"/>
                </mxCell>
                <mxCell id="RF8mBAwJzvHUmaenBq2k-28" value="Problem Acting/Planning&amp;nbsp;" style="rounded=0;whiteSpace=wrap;html=1;fillColor=#ff00ff;treeFolding=1;treeMoving=1;" parent="RF8mBAwJzvHUmaenBq2k-42" vertex="1">
                    <mxGeometry x="10" y="780" width="200" height="80" as="geometry"/>
                </mxCell>
                <mxCell id="RF8mBAwJzvHUmaenBq2k-29" value="Problem Perception/Planning" style="rounded=0;whiteSpace=wrap;html=1;fillColor=#00ffff;treeFolding=1;treeMoving=1;" parent="RF8mBAwJzvHUmaenBq2k-42" vertex="1">
                    <mxGeometry x="10" y="660" width="200" height="80" as="geometry"/>
                </mxCell>
                <mxCell id="RF8mBAwJzvHUmaenBq2k-30" value="Problem Perception/Acting" style="rounded=0;whiteSpace=wrap;html=1;fillColor=#ffff00;treeFolding=1;treeMoving=1;" parent="RF8mBAwJzvHUmaenBq2k-42" vertex="1">
                    <mxGeometry x="10" y="540" width="200" height="80" as="geometry"/>
                </mxCell>
                <mxCell id="RF8mBAwJzvHUmaenBq2k-31" value="&lt;font color=&quot;#ffffff&quot;&gt;Problem Planning&lt;/font&gt;" style="rounded=0;whiteSpace=wrap;html=1;fillColor=#0000ff;treeFolding=1;treeMoving=1;" parent="RF8mBAwJzvHUmaenBq2k-42" vertex="1">
                    <mxGeometry x="250" y="780" width="200" height="80" as="geometry"/>
                </mxCell>
                <mxCell id="RF8mBAwJzvHUmaenBq2k-32" value="Problem Acting" style="rounded=0;whiteSpace=wrap;html=1;fillColor=#ff0000;treeFolding=1;treeMoving=1;" parent="RF8mBAwJzvHUmaenBq2k-42" vertex="1">
                    <mxGeometry x="250" y="660" width="200" height="80" as="geometry"/>
                </mxCell>
                <mxCell id="RF8mBAwJzvHUmaenBq2k-40" value="Lösungenvorschlag&lt;div&gt;(Git-Issue)&lt;/div&gt;" style="shape=parallelogram;perimeter=parallelogramPerimeter;whiteSpace=wrap;html=1;fixedSize=1;gradientDirection=radial;fillColor=#cdeb8b;strokeColor=#36393d;treeFolding=1;treeMoving=1;" parent="RF8mBAwJzvHUmaenBq2k-42" vertex="1">
                    <mxGeometry x="10" y="60" width="200" height="80" as="geometry"/>
                </mxCell>
                <mxCell id="RF8mBAwJzvHUmaenBq2k-41" value="Problem" style="rounded=0;whiteSpace=wrap;html=1;treeFolding=1;treeMoving=1;" parent="RF8mBAwJzvHUmaenBq2k-42" vertex="1">
                    <mxGeometry x="250" y="900" width="200" height="80" as="geometry"/>
                </mxCell>
                <mxCell id="32CIxWDeSnu1wFJP0kj--45" value="Ziele" style="rounded=0;whiteSpace=wrap;html=1;fillColor=#ffe6cc;strokeColor=#d79b00;treeFolding=1;treeMoving=1;" parent="RF8mBAwJzvHUmaenBq2k-1" vertex="1">
                    <mxGeometry x="990.0000000000002" y="360" width="200" height="80" as="geometry"/>
                </mxCell>
                <mxCell id="32CIxWDeSnu1wFJP0kj--67" value="" style="edgeStyle=entityRelationEdgeStyle;startArrow=none;endArrow=none;segment=10;curved=1;sourcePerimeterSpacing=0;targetPerimeterSpacing=0;rounded=0;fontFamily=Helvetica;fontSize=12;fontColor=default;exitX=1;exitY=0.5;exitDx=0;exitDy=0;" parent="RF8mBAwJzvHUmaenBq2k-1" source="32CIxWDeSnu1wFJP0kj--45" target="32CIxWDeSnu1wFJP0kj--68" edge="1">
                    <mxGeometry relative="1" as="geometry">
                        <mxPoint x="1410" y="-2330" as="sourcePoint"/>
                    </mxGeometry>
                </mxCell>
                <mxCell id="32CIxWDeSnu1wFJP0kj--68" value="Sub Topic" style="whiteSpace=wrap;html=1;rounded=1;arcSize=12;align=center;verticalAlign=middle;strokeWidth=1;autosize=1;spacing=4;treeFolding=1;treeMoving=1;newEdgeStyle={&quot;edgeStyle&quot;:&quot;entityRelationEdgeStyle&quot;,&quot;startArrow&quot;:&quot;none&quot;,&quot;endArrow&quot;:&quot;none&quot;,&quot;segment&quot;:10,&quot;curved&quot;:1,&quot;sourcePerimeterSpacing&quot;:0,&quot;targetPerimeterSpacing&quot;:0};strokeColor=#0000ff;fontFamily=Helvetica;fontSize=12;fontColor=default;fillColor=none;gradientColor=default;" parent="RF8mBAwJzvHUmaenBq2k-1" vertex="1">
                    <mxGeometry x="1340" y="850" width="240" height="80" as="geometry"/>
                </mxCell>
                <mxCell id="32CIxWDeSnu1wFJP0kj--69" value="" style="edgeStyle=entityRelationEdgeStyle;startArrow=none;endArrow=none;segment=10;curved=1;sourcePerimeterSpacing=0;targetPerimeterSpacing=0;rounded=0;fontFamily=Helvetica;fontSize=12;fontColor=default;exitX=1;exitY=0.5;exitDx=0;exitDy=0;" parent="RF8mBAwJzvHUmaenBq2k-1" source="32CIxWDeSnu1wFJP0kj--45" target="32CIxWDeSnu1wFJP0kj--70" edge="1">
                    <mxGeometry relative="1" as="geometry">
                        <mxPoint x="1410" y="-2330" as="sourcePoint"/>
                    </mxGeometry>
                </mxCell>
                <mxCell id="32CIxWDeSnu1wFJP0kj--70" value="Sub Topic" style="whiteSpace=wrap;html=1;rounded=1;arcSize=12;align=center;verticalAlign=middle;strokeWidth=1;autosize=1;spacing=4;treeFolding=1;treeMoving=1;newEdgeStyle={&quot;edgeStyle&quot;:&quot;entityRelationEdgeStyle&quot;,&quot;startArrow&quot;:&quot;none&quot;,&quot;endArrow&quot;:&quot;none&quot;,&quot;segment&quot;:10,&quot;curved&quot;:1,&quot;sourcePerimeterSpacing&quot;:0,&quot;targetPerimeterSpacing&quot;:0};strokeColor=#FF0000;fontFamily=Helvetica;fontSize=12;fontColor=default;fillColor=none;gradientColor=default;" parent="RF8mBAwJzvHUmaenBq2k-1" vertex="1">
                    <mxGeometry x="1310" y="360" width="240" height="80" as="geometry"/>
                </mxCell>
                <mxCell id="32CIxWDeSnu1wFJP0kj--79" value="" style="edgeStyle=entityRelationEdgeStyle;startArrow=none;endArrow=none;segment=10;curved=1;sourcePerimeterSpacing=0;targetPerimeterSpacing=0;rounded=0;fontFamily=Helvetica;fontSize=12;fontColor=default;exitX=1;exitY=0.5;exitDx=0;exitDy=0;" parent="RF8mBAwJzvHUmaenBq2k-1" source="32CIxWDeSnu1wFJP0kj--70" target="32CIxWDeSnu1wFJP0kj--80" edge="1">
                    <mxGeometry relative="1" as="geometry">
                        <mxPoint x="1410" y="-2330" as="sourcePoint"/>
                    </mxGeometry>
                </mxCell>
                <mxCell id="32CIxWDeSnu1wFJP0kj--80" value="Sub Topic" style="whiteSpace=wrap;html=1;rounded=1;arcSize=12;align=center;verticalAlign=middle;strokeWidth=1;autosize=1;spacing=4;treeFolding=1;treeMoving=1;newEdgeStyle={&quot;edgeStyle&quot;:&quot;entityRelationEdgeStyle&quot;,&quot;startArrow&quot;:&quot;none&quot;,&quot;endArrow&quot;:&quot;none&quot;,&quot;segment&quot;:10,&quot;curved&quot;:1,&quot;sourcePerimeterSpacing&quot;:0,&quot;targetPerimeterSpacing&quot;:0};strokeColor=default;fontFamily=Helvetica;fontSize=12;fontColor=default;fillColor=#ff0000;gradientColor=none;shape=cube;boundedLbl=1;backgroundOutline=1;darkOpacity=0.05;darkOpacity2=0.1;" parent="RF8mBAwJzvHUmaenBq2k-1" vertex="1">
                    <mxGeometry x="1590" y="360" width="240" height="80" as="geometry"/>
                </mxCell>
                <mxCell id="32CIxWDeSnu1wFJP0kj--81" value="" style="edgeStyle=entityRelationEdgeStyle;startArrow=none;endArrow=none;segment=10;curved=1;sourcePerimeterSpacing=0;targetPerimeterSpacing=0;rounded=0;fontFamily=Helvetica;fontSize=12;fontColor=default;exitX=1;exitY=0.5;exitDx=0;exitDy=0;" parent="RF8mBAwJzvHUmaenBq2k-1" source="32CIxWDeSnu1wFJP0kj--70" target="32CIxWDeSnu1wFJP0kj--82" edge="1">
                    <mxGeometry relative="1" as="geometry">
                        <mxPoint x="1770" y="-2330" as="sourcePoint"/>
                    </mxGeometry>
                </mxCell>
                <mxCell id="32CIxWDeSnu1wFJP0kj--82" value="Sub Topic" style="whiteSpace=wrap;html=1;rounded=1;arcSize=12;align=center;verticalAlign=middle;strokeWidth=1;autosize=1;spacing=4;treeFolding=1;treeMoving=1;newEdgeStyle={&quot;edgeStyle&quot;:&quot;entityRelationEdgeStyle&quot;,&quot;startArrow&quot;:&quot;none&quot;,&quot;endArrow&quot;:&quot;none&quot;,&quot;segment&quot;:10,&quot;curved&quot;:1,&quot;sourcePerimeterSpacing&quot;:0,&quot;targetPerimeterSpacing&quot;:0};strokeColor=default;fontFamily=Helvetica;fontSize=12;fontColor=default;fillColor=#ff0000;gradientColor=none;shape=cube;boundedLbl=1;backgroundOutline=1;darkOpacity=0.05;darkOpacity2=0.1;" parent="RF8mBAwJzvHUmaenBq2k-1" vertex="1">
                    <mxGeometry x="1590" y="450" width="240" height="80" as="geometry"/>
                </mxCell>
                <mxCell id="32CIxWDeSnu1wFJP0kj--83" value="" style="edgeStyle=entityRelationEdgeStyle;startArrow=none;endArrow=none;segment=10;curved=1;sourcePerimeterSpacing=0;targetPerimeterSpacing=0;rounded=0;fontFamily=Helvetica;fontSize=12;fontColor=default;exitX=1;exitY=0.5;exitDx=0;exitDy=0;" parent="RF8mBAwJzvHUmaenBq2k-1" source="32CIxWDeSnu1wFJP0kj--68" target="32CIxWDeSnu1wFJP0kj--84" edge="1">
                    <mxGeometry relative="1" as="geometry">
                        <mxPoint x="1410" y="-2330" as="sourcePoint"/>
                    </mxGeometry>
                </mxCell>
                <mxCell id="32CIxWDeSnu1wFJP0kj--84" value="&lt;font color=&quot;#ffffff&quot;&gt;dfdsf&lt;/font&gt;" style="whiteSpace=wrap;html=1;rounded=1;arcSize=12;align=center;verticalAlign=middle;strokeWidth=1;autosize=1;spacing=4;treeFolding=1;treeMoving=1;newEdgeStyle={&quot;edgeStyle&quot;:&quot;entityRelationEdgeStyle&quot;,&quot;startArrow&quot;:&quot;none&quot;,&quot;endArrow&quot;:&quot;none&quot;,&quot;segment&quot;:10,&quot;curved&quot;:1,&quot;sourcePerimeterSpacing&quot;:0,&quot;targetPerimeterSpacing&quot;:0};strokeColor=default;fontFamily=Helvetica;fontSize=12;fontColor=default;fillColor=#0000ff;gradientColor=none;shape=cube;boundedLbl=1;backgroundOutline=1;darkOpacity=0.05;darkOpacity2=0.1;" parent="RF8mBAwJzvHUmaenBq2k-1" vertex="1">
                    <mxGeometry x="1700" y="850" width="240" height="80" as="geometry"/>
                </mxCell>
                <mxCell id="32CIxWDeSnu1wFJP0kj--74" value="" style="edgeStyle=entityRelationEdgeStyle;rounded=0;orthogonalLoop=1;jettySize=auto;html=1;startArrow=none;endArrow=none;segment=10;curved=1;sourcePerimeterSpacing=0;targetPerimeterSpacing=0;fontFamily=Helvetica;fontSize=12;fontColor=default;" parent="1" source="32CIxWDeSnu1wFJP0kj--72" target="32CIxWDeSnu1wFJP0kj--73" edge="1">
                    <mxGeometry relative="1" as="geometry"/>
                </mxCell>
                <mxCell id="32CIxWDeSnu1wFJP0kj--72" value="Sub Topic" style="whiteSpace=wrap;html=1;rounded=1;arcSize=12;align=center;verticalAlign=middle;strokeWidth=1;autosize=1;spacing=4;treeFolding=1;treeMoving=1;newEdgeStyle={&quot;edgeStyle&quot;:&quot;entityRelationEdgeStyle&quot;,&quot;startArrow&quot;:&quot;none&quot;,&quot;endArrow&quot;:&quot;none&quot;,&quot;segment&quot;:10,&quot;curved&quot;:1,&quot;sourcePerimeterSpacing&quot;:0,&quot;targetPerimeterSpacing&quot;:0};strokeColor=#00ff00;fontFamily=Helvetica;fontSize=12;fontColor=default;fillColor=none;gradientColor=default;container=0;part=0;" parent="1" vertex="1">
                    <mxGeometry x="1490" y="-2810" width="240" height="80" as="geometry"/>
                </mxCell>
                <mxCell id="32CIxWDeSnu1wFJP0kj--71" value="" style="edgeStyle=entityRelationEdgeStyle;startArrow=none;endArrow=none;segment=10;curved=1;sourcePerimeterSpacing=0;targetPerimeterSpacing=0;rounded=0;fontFamily=Helvetica;fontSize=12;fontColor=default;exitX=1;exitY=0.5;exitDx=0;exitDy=0;" parent="1" source="32CIxWDeSnu1wFJP0kj--45" target="32CIxWDeSnu1wFJP0kj--72" edge="1">
                    <mxGeometry relative="1" as="geometry">
                        <mxPoint x="1630" y="-5060" as="sourcePoint"/>
                    </mxGeometry>
                </mxCell>
                <mxCell id="32CIxWDeSnu1wFJP0kj--76" value="" style="edgeStyle=entityRelationEdgeStyle;rounded=0;orthogonalLoop=1;jettySize=auto;html=1;startArrow=none;endArrow=none;segment=10;curved=1;sourcePerimeterSpacing=0;targetPerimeterSpacing=0;fontFamily=Helvetica;fontSize=12;fontColor=default;" parent="1" source="32CIxWDeSnu1wFJP0kj--72" target="32CIxWDeSnu1wFJP0kj--75" edge="1">
                    <mxGeometry relative="1" as="geometry"/>
                </mxCell>
                <mxCell id="32CIxWDeSnu1wFJP0kj--78" value="" style="edgeStyle=entityRelationEdgeStyle;rounded=0;orthogonalLoop=1;jettySize=auto;html=1;startArrow=none;endArrow=none;segment=10;curved=1;sourcePerimeterSpacing=0;targetPerimeterSpacing=0;fontFamily=Helvetica;fontSize=12;fontColor=default;" parent="1" source="32CIxWDeSnu1wFJP0kj--73" target="32CIxWDeSnu1wFJP0kj--77" edge="1">
                    <mxGeometry relative="1" as="geometry"/>
                </mxCell>
                <mxCell id="32CIxWDeSnu1wFJP0kj--73" value="Sub Topic" style="whiteSpace=wrap;html=1;rounded=1;arcSize=12;align=center;verticalAlign=middle;strokeWidth=1;autosize=1;spacing=4;treeFolding=1;treeMoving=1;newEdgeStyle={&quot;edgeStyle&quot;:&quot;entityRelationEdgeStyle&quot;,&quot;startArrow&quot;:&quot;none&quot;,&quot;endArrow&quot;:&quot;none&quot;,&quot;segment&quot;:10,&quot;curved&quot;:1,&quot;sourcePerimeterSpacing&quot;:0,&quot;targetPerimeterSpacing&quot;:0};strokeColor=default;fontFamily=Helvetica;fontSize=12;fontColor=default;fillColor=#00ff00;gradientColor=none;container=0;part=0;shape=cube;boundedLbl=1;backgroundOutline=1;darkOpacity=0.05;darkOpacity2=0.1;" parent="1" vertex="1">
                    <mxGeometry x="1830" y="-2980" width="240" height="80" as="geometry"/>
                </mxCell>
                <mxCell id="3" value="" style="edgeStyle=entityRelationEdgeStyle;html=1;startArrow=none;endArrow=none;segment=10;curved=1;sourcePerimeterSpacing=0;targetPerimeterSpacing=0;" edge="1" parent="1" source="32CIxWDeSnu1wFJP0kj--75">
                    <mxGeometry relative="1" as="geometry">
                        <mxPoint x="2149.9999999999995" y="-2780" as="targetPoint"/>
                    </mxGeometry>
                </mxCell>
                <mxCell id="32CIxWDeSnu1wFJP0kj--75" value="Sub Topic" style="whiteSpace=wrap;html=1;rounded=1;arcSize=12;align=center;verticalAlign=middle;strokeWidth=1;autosize=1;spacing=4;treeFolding=1;treeMoving=1;newEdgeStyle={&quot;edgeStyle&quot;:&quot;entityRelationEdgeStyle&quot;,&quot;startArrow&quot;:&quot;none&quot;,&quot;endArrow&quot;:&quot;none&quot;,&quot;segment&quot;:10,&quot;curved&quot;:1,&quot;sourcePerimeterSpacing&quot;:0,&quot;targetPerimeterSpacing&quot;:0};strokeColor=default;fontFamily=Helvetica;fontSize=12;fontColor=default;fillColor=#00ff00;gradientColor=none;container=0;part=0;shape=cube;boundedLbl=1;backgroundOutline=1;darkOpacity=0.05;darkOpacity2=0.1;" parent="1" vertex="1">
                    <mxGeometry x="1830" y="-2820" width="240" height="80" as="geometry"/>
                </mxCell>
                <mxCell id="32CIxWDeSnu1wFJP0kj--77" value="" style="whiteSpace=wrap;html=1;fillColor=#00ff00;rounded=0;arcSize=12;strokeWidth=1;autosize=1;spacing=4;gradientColor=none;treeFolding=1;treeMoving=1;" parent="1" vertex="1">
                    <mxGeometry x="2180" y="-2970" width="120" height="60" as="geometry"/>
                </mxCell>
            </root>
        </mxGraphModel>
    </diagram>
</mxfile>